<svg class="rich-terminal" viewBox="0 0 1238 782.0" xmlns="http://www.w3.org/2000/svg">
    <!-- Generated with Rich https://www.textualize.io -->
    <style>

    @font-face {
        font-family: "Fira Code";
        src: local("FiraCode-Regular"),
                url("https://cdnjs.cloudflare.com/ajax/libs/firacode/6.2.0/woff2/FiraCode-Regular.woff2") format("woff2"),
                url("https://cdnjs.cloudflare.com/ajax/libs/firacode/6.2.0/woff/FiraCode-Regular.woff") format("woff");
        font-style: normal;
        font-weight: 400;
    }
    @font-face {
        font-family: "Fira Code";
        src: local("FiraCode-Bold"),
                url("https://cdnjs.cloudflare.com/ajax/libs/firacode/6.2.0/woff2/FiraCode-Bold.woff2") format("woff2"),
                url("https://cdnjs.cloudflare.com/ajax/libs/firacode/6.2.0/woff/FiraCode-Bold.woff") format("woff");
        font-style: bold;
        font-weight: 700;
    }

    .terminal-3857241843-matrix {
        font-family: Fira Code, monospace;
        font-size: 20px;
        line-height: 24.4px;
        font-variant-east-asian: full-width;
    }

    .terminal-3857241843-title {
        font-size: 18px;
        font-weight: bold;
        font-family: arial;
    }

    .terminal-3857241843-r1 { fill: #c5c8c6 }
.terminal-3857241843-r2 { fill: #0b090c }
.terminal-3857241843-r3 { fill: #5d5c5e }
.terminal-3857241843-r4 { fill: #add1c1 }
.terminal-3857241843-r5 { fill: #0a7d4f;font-weight: bold }
.terminal-3857241843-r6 { fill: #5f7166 }
.terminal-3857241843-r7 { fill: #6a3df0;font-weight: bold }
.terminal-3857241843-r8 { fill: #7a3e9d }
.terminal-3857241843-r9 { fill: #e64ce6 }
.terminal-3857241843-r10 { fill: #0083b2;font-weight: bold }
.terminal-3857241843-r11 { fill: #0a7d4f }
.terminal-3857241843-r12 { fill: #ededed }
.terminal-3857241843-r13 { fill: #616261 }
.terminal-3857241843-r14 { fill: #b26a00;font-weight: bold }
.terminal-3857241843-r15 { fill: #cecdce }
    </style>

    <defs>
    <clipPath id="terminal-3857241843-clip-terminal">
      <rect x="0" y="0" width="1219.0" height="731.0" />
    </clipPath>
    <clipPath id="terminal-3857241843-line-0">
    <rect x="0" y="1.5" width="1220" height="24.65"/>
            </clipPath>
<clipPath id="terminal-3857241843-line-1">
    <rect x="0" y="25.9" width="1220" height="24.65"/>
            </clipPath>
<clipPath id="terminal-3857241843-line-2">
    <rect x="0" y="50.3" width="1220" height="24.65"/>
            </clipPath>
<clipPath id="terminal-3857241843-line-3">
    <rect x="0" y="74.7" width="1220" height="24.65"/>
            </clipPath>
<clipPath id="terminal-3857241843-line-4">
    <rect x="0" y="99.1" width="1220" height="24.65"/>
            </clipPath>
<clipPath id="terminal-3857241843-line-5">
    <rect x="0" y="123.5" width="1220" height="24.65"/>
            </clipPath>
<clipPath id="terminal-3857241843-line-6">
    <rect x="0" y="147.9" width="1220" height="24.65"/>
            </clipPath>
<clipPath id="terminal-3857241843-line-7">
    <rect x="0" y="172.3" width="1220" height="24.65"/>
            </clipPath>
<clipPath id="terminal-3857241843-line-8">
    <rect x="0" y="196.7" width="1220" height="24.65"/>
            </clipPath>
<clipPath id="terminal-3857241843-line-9">
    <rect x="0" y="221.1" width="1220" height="24.65"/>
            </clipPath>
<clipPath id="terminal-3857241843-line-10">
    <rect x="0" y="245.5" width="1220" height="24.65"/>
            </clipPath>
<clipPath id="terminal-3857241843-line-11">
    <rect x="0" y="269.9" width="1220" height="24.65"/>
            </clipPath>
<clipPath id="terminal-3857241843-line-12">
    <rect x="0" y="294.3" width="1220" height="24.65"/>
            </clipPath>
<clipPath id="terminal-3857241843-line-13">
    <rect x="0" y="318.7" width="1220" height="24.65"/>
            </clipPath>
<clipPath id="terminal-3857241843-line-14">
    <rect x="0" y="343.1" width="1220" height="24.65"/>
            </clipPath>
<clipPath id="terminal-3857241843-line-15">
    <rect x="0" y="367.5" width="1220" height="24.65"/>
            </clipPath>
<clipPath id="terminal-3857241843-line-16">
    <rect x="0" y="391.9" width="1220" height="24.65"/>
            </clipPath>
<clipPath id="terminal-3857241843-line-17">
    <rect x="0" y="416.3" width="1220" height="24.65"/>
            </clipPath>
<clipPath id="terminal-3857241843-line-18">
    <rect x="0" y="440.7" width="1220" height="24.65"/>
            </clipPath>
<clipPath id="terminal-3857241843-line-19">
    <rect x="0" y="465.1" width="1220" height="24.65"/>
            </clipPath>
<clipPath id="terminal-3857241843-line-20">
    <rect x="0" y="489.5" width="1220" height="24.65"/>
            </clipPath>
<clipPath id="terminal-3857241843-line-21">
    <rect x="0" y="513.9" width="1220" height="24.65"/>
            </clipPath>
<clipPath id="terminal-3857241843-line-22">
    <rect x="0" y="538.3" width="1220" height="24.65"/>
            </clipPath>
<clipPath id="terminal-3857241843-line-23">
    <rect x="0" y="562.7" width="1220" height="24.65"/>
            </clipPath>
<clipPath id="terminal-3857241843-line-24">
    <rect x="0" y="587.1" width="1220" height="24.65"/>
            </clipPath>
<clipPath id="terminal-3857241843-line-25">
    <rect x="0" y="611.5" width="1220" height="24.65"/>
            </clipPath>
<clipPath id="terminal-3857241843-line-26">
    <rect x="0" y="635.9" width="1220" height="24.65"/>
            </clipPath>
<clipPath id="terminal-3857241843-line-27">
    <rect x="0" y="660.3" width="1220" height="24.65"/>
            </clipPath>
<clipPath id="terminal-3857241843-line-28">
    <rect x="0" y="684.7" width="1220" height="24.65"/>
            </clipPath>
    </defs>

    <rect fill="#292929" stroke="rgba(255,255,255,0.35)" stroke-width="1" x="1" y="1" width="1236" height="780" rx="8"/><text class="terminal-3857241843-title" fill="#c5c8c6" text-anchor="middle" x="618" y="27">sidekick</text>
            <g transform="translate(26,22)">
            <circle cx="0" cy="0" r="7" fill="#ff5f57"/>
            <circle cx="22" cy="0" r="7" fill="#febc2e"/>
            <circle cx="44" cy="0" r="7" fill="#28c840"/>
            </g>
        
    <g transform="translate(9, 41)" clip-path="url(#terminal-3857241843-clip-terminal)">
    <rect fill="#ffffff" x="0" y="1.5" width="12.2" height="24.65" shape-rendering="crispEdges"/><rect fill="#ffffff" x="12.2" y="1.5" width="12.2" height="24.65" shape-rendering="crispEdges"/><rect fill="#ffffff" x="24.4" y="1.5" width="61" height="24.65" shape-rendering="crispEdges"/><rect fill="#ffffff" x="85.4" y="1.5" width="12.2" height="24.65" shape-rendering="crispEdges"/><rect fill="#ffffff" x="97.6" y="1.5" width="73.2" height="24.65" shape-rendering="crispEdges"/><rect fill="#ffffff" x="170.8" y="1.5" width="97.6" height="24.65" shape-rendering="crispEdges"/><rect fill="#ffffff" x="268.4" y="1.5" width="36.6" height="24.65" shape-rendering="crispEdges"/><rect fill="#ffffff" x="305" y="1.5" width="719.8" height="24.65" shape-rendering="crispEdges"/><rect fill="#ffffff" x="1024.8" y="1.5" width="73.2" height="24.65" shape-rendering="crispEdges"/><rect fill="#ffffff" x="1098" y="1.5" width="12.2" height="24.65" shape-rendering="crispEdges"/><rect fill="#ffffff" x="1110.2" y="1.5" width="0" height="24.65" shape-rendering="crispEdges"/><rect fill="#ffffff" x="1110.2" y="1.5" width="97.6" height="24.65" shape-rendering="crispEdges"/><rect fill="#ffffff" x="1207.8" y="1.5" width="12.2" height="24.65" shape-rendering="crispEdges"/><rect fill="#ffffff" x="0" y="25.9" width="12.2" height="24.65" shape-rendering="crispEdges"/><rect fill="#ffffff" x="12.2" y="25.9" width="1195.6" height="24.65" shape-rendering="crispEdges"/><rect fill="#ffffff" x="1207.8" y="25.9" width="12.2" height="24.65" shape-rendering="crispEdges"/><rect fill="#ffffff" x="0" y="50.3" width="12.2" height="24.65" shape-rendering="crispEdges"/><rect fill="#ffffff" x="12.2" y="50.3" width="939.4" height="24.65" shape-rendering="crispEdges"/><rect fill="#ffffff" x="951.6" y="50.3" width="231.8" height="24.65" shape-rendering="crispEdges"/><rect fill="#dee0dd" x="1183.4" y="50.3" width="24.4" height="24.65" shape-rendering="crispEdges"/><rect fill="#ffffff" x="1207.8" y="50.3" width="12.2" height="24.65" shape-rendering="crispEdges"/><rect fill="#ffffff" x="0" y="74.7" width="12.2" height="24.65" shape-rendering="crispEdges"/><rect fill="#ffffff" x="12.2" y="74.7" width="927.2" height="24.65" shape-rendering="crispEdges"/><rect fill="#ffffff" x="939.4" y="74.7" width="244" height="24.65" shape-rendering="crispEdges"/><rect fill="#dee0dd" x="1183.4" y="74.7" width="24.4" height="24.65" shape-rendering="crispEdges"/><rect fill="#ffffff" x="1207.8" y="74.7" width="12.2" height="24.65" shape-rendering="crispEdges"/><rect fill="#ffffff" x="0" y="99.1" width="12.2" height="24.65" shape-rendering="crispEdges"/><rect fill="#ffffff" x="12.2" y="99.1" width="353.8" height="24.65" shape-rendering="crispEdges"/><rect fill="#ffffff" x="366" y="99.1" width="817.4" height="24.65" shape-rendering="crispEdges"/><rect fill="#dee0dd" x="1183.4" y="99.1" width="24.4" height="24.65" shape-rendering="crispEdges"/><rect fill="#ffffff" x="1207.8" y="99.1" width="12.2" height="24.65" shape-rendering="crispEdges"/><rect fill="#ffffff" x="0" y="123.5" width="12.2" height="24.65" shape-rendering="crispEdges"/><rect fill="#ffffff" x="12.2" y="123.5" width="646.6" height="24.65" shape-rendering="crispEdges"/><rect fill="#ffffff" x="658.8" y="123.5" width="524.6" height="24.65" shape-rendering="crispEdges"/><rect fill="#dee0dd" x="1183.4" y="123.5" width="24.4" height="24.65" shape-rendering="crispEdges"/><rect fill="#ffffff" x="1207.8" y="123.5" width="12.2" height="24.65" shape-rendering="crispEdges"/><rect fill="#ffffff" x="0" y="147.9" width="12.2" height="24.65" shape-rendering="crispEdges"/><rect fill="#ffffff" x="12.2" y="147.9" width="915" height="24.65" shape-rendering="crispEdges"/><rect fill="#ffffff" x="927.2" y="147.9" width="256.2" height="24.65" shape-rendering="crispEdges"/><rect fill="#dee0dd" x="1183.4" y="147.9" width="24.4" height="24.65" shape-rendering="crispEdges"/><rect fill="#ffffff" x="1207.8" y="147.9" width="12.2" height="24.65" shape-rendering="crispEdges"/><rect fill="#ffffff" x="0" y="172.3" width="12.2" height="24.65" shape-rendering="crispEdges"/><rect fill="#ffffff" x="12.2" y="172.3" width="97.6" height="24.65" shape-rendering="crispEdges"/><rect fill="#ffffff" x="109.8" y="172.3" width="61" height="24.65" shape-rendering="crispEdges"/><rect fill="#ffffff" x="170.8" y="172.3" width="353.8" height="24.65" shape-rendering="crispEdges"/><rect fill="#ffffff" x="524.6" y="172.3" width="658.8" height="24.65" shape-rendering="crispEdges"/><rect fill="#dee0dd" x="1183.4" y="172.3" width="24.4" height="24.65" shape-rendering="crispEdges"/><rect fill="#ffffff" x="1207.8" y="172.3" width="12.2" height="24.65" shape-rendering="crispEdges"/><rect fill="#ffffff" x="0" y="196.7" width="12.2" height="24.65" shape-rendering="crispEdges"/><rect fill="#ffffff" x="12.2" y="196.7" width="97.6" height="24.65" shape-rendering="crispEdges"/><rect fill="#ffffff" x="109.8" y="196.7" width="73.2" height="24.65" shape-rendering="crispEdges"/><rect fill="#ffffff" x="183" y="196.7" width="475.8" height="24.65" shape-rendering="crispEdges"/><rect fill="#ffffff" x="658.8" y="196.7" width="524.6" height="24.65" shape-rendering="crispEdges"/><rect fill="#dee0dd" x="1183.4" y="196.7" width="24.4" height="24.65" shape-rendering="crispEdges"/><rect fill="#ffffff" x="1207.8" y="196.7" width="12.2" height="24.65" shape-rendering="crispEdges"/><rect fill="#ffffff" x="0" y="221.1" width="12.2" height="24.65" shape-rendering="crispEdges"/><rect fill="#ffffff" x="12.2" y="221.1" width="97.6" height="24.65" shape-rendering="crispEdges"/><rect fill="#ffffff" x="109.8" y="221.1" width="122" height="24.65" shape-rendering="crispEdges"/><rect fill="#ffffff" x="231.8" y="221.1" width="951.6" height="24.65" shape-rendering="crispEdges"/><rect fill="#dee0dd" x="1183.4" y="221.1" width="24.4" height="24.65" shape-rendering="crispEdges"/><rect fill="#ffffff" x="1207.8" y="221.1" width="12.2" height="24.65" shape-rendering="crispEdges"/><rect fill="#ffffff" x="0" y="245.5" width="12.2" height="24.65" shape-rendering="crispEdges"/><rect fill="#ffffff" x="12.2" y="245.5" width="36.6" height="24.65" shape-rendering="crispEdges"/><rect fill="#ffffff" x="48.8" y="245.5" width="12.2" height="24.65" shape-rendering="crispEdges"/><rect fill="#ffffff" x="61" y="245.5" width="97.6" height="24.65" shape-rendering="crispEdges"/><rect fill="#ffffff" x="158.6" y="245.5" width="658.8" height="24.65" shape-rendering="crispEdges"/><rect fill="#ffffff" x="817.4" y="245.5" width="366" height="24.65" shape-rendering="crispEdges"/><rect fill="#dee0dd" x="1183.4" y="245.5" width="24.4" height="24.65" shape-rendering="crispEdges"/><rect fill="#ffffff" x="1207.8" y="245.5" width="12.2" height="24.65" shape-rendering="crispEdges"/><rect fill="#ffffff" x="0" y="269.9" width="12.2" height="24.65" shape-rendering="crispEdges"/><rect fill="#ffffff" x="12.2" y="269.9" width="97.6" height="24.65" shape-rendering="crispEdges"/><rect fill="#ffffff" x="109.8" y="269.9" width="61" height="24.65" shape-rendering="crispEdges"/><rect fill="#ffffff" x="170.8" y="269.9" width="317.2" height="24.65" shape-rendering="crispEdges"/><rect fill="#ffffff" x="488" y="269.9" width="695.4" height="24.65" shape-rendering="crispEdges"/><rect fill="#dee0dd" x="1183.4" y="269.9" width="24.4" height="24.65" shape-rendering="crispEdges"/><rect fill="#ffffff" x="1207.8" y="269.9" width="12.2" height="24.65" shape-rendering="crispEdges"/><rect fill="#ffffff" x="0" y="294.3" width="12.2" height="24.65" shape-rendering="crispEdges"/><rect fill="#ffffff" x="12.2" y="294.3" width="97.6" height="24.65" shape-rendering="crispEdges"/><rect fill="#ffffff" x="109.8" y="294.3" width="73.2" height="24.65" shape-rendering="crispEdges"/><rect fill="#ffffff" x="183" y="294.3" width="353.8" height="24.65" shape-rendering="crispEdges"/><rect fill="#ffffff" x="536.8" y="294.3" width="646.6" height="24.65" shape-rendering="crispEdges"/><rect fill="#dee0dd" x="1183.4" y="294.3" width="24.4" height="24.65" shape-rendering="crispEdges"/><rect fill="#ffffff" x="1207.8" y="294.3" width="12.2" height="24.65" shape-rendering="crispEdges"/><rect fill="#ffffff" x="0" y="318.7" width="12.2" height="24.65" shape-rendering="crispEdges"/><rect fill="#ffffff" x="12.2" y="318.7" width="97.6" height="24.65" shape-rendering="crispEdges"/><rect fill="#ffffff" x="109.8" y="318.7" width="122" height="24.65" shape-rendering="crispEdges"/><rect fill="#ffffff" x="231.8" y="318.7" width="951.6" height="24.65" shape-rendering="crispEdges"/><rect fill="#dee0dd" x="1183.4" y="318.7" width="24.4" height="24.65" shape-rendering="crispEdges"/><rect fill="#ffffff" x="1207.8" y="318.7" width="12.2" height="24.65" shape-rendering="crispEdges"/><rect fill="#ffffff" x="0" y="343.1" width="12.2" height="24.65" shape-rendering="crispEdges"/><rect fill="#ffffff" x="12.2" y="343.1" width="61" height="24.65" shape-rendering="crispEdges"/><rect fill="#ffffff" x="73.2" y="343.1" width="109.8" height="24.65" shape-rendering="crispEdges"/><rect fill="#ffffff" x="183" y="343.1" width="170.8" height="24.65" shape-rendering="crispEdges"/><rect fill="#ffffff" x="353.8" y="343.1" width="24.4" height="24.65" shape-rendering="crispEdges"/><rect fill="#ffffff" x="378.2" y="343.1" width="48.8" height="24.65" shape-rendering="crispEdges"/><rect fill="#ffffff" x="427" y="343.1" width="24.4" height="24.65" shape-rendering="crispEdges"/><rect fill="#ffffff" x="451.4" y="343.1" width="24.4" height="24.65" shape-rendering="crispEdges"/><rect fill="#ffffff" x="475.8" y="343.1" width="12.2" height="24.65" shape-rendering="crispEdges"/><rect fill="#ffffff" x="488" y="343.1" width="695.4" height="24.65" shape-rendering="crispEdges"/><rect fill="#dee0dd" x="1183.4" y="343.1" width="24.4" height="24.65" shape-rendering="crispEdges"/><rect fill="#ffffff" x="1207.8" y="343.1" width="12.2" height="24.65" shape-rendering="crispEdges"/><rect fill="#ffffff" x="0" y="367.5" width="12.2" height="24.65" shape-rendering="crispEdges"/><rect fill="#ffffff" x="12.2" y="367.5" width="1171.2" height="24.65" shape-rendering="crispEdges"/><rect fill="#dee0dd" x="1183.4" y="367.5" width="24.4" height="24.65" shape-rendering="crispEdges"/><rect fill="#ffffff" x="1207.8" y="367.5" width="12.2" height="24.65" shape-rendering="crispEdges"/><rect fill="#ffffff" x="0" y="391.9" width="12.2" height="24.65" shape-rendering="crispEdges"/><rect fill="#ffffff" x="12.2" y="391.9" width="1171.2" height="24.65" shape-rendering="crispEdges"/><rect fill="#dee0dd" x="1183.4" y="391.9" width="24.4" height="24.65" shape-rendering="crispEdges"/><rect fill="#ffffff" x="1207.8" y="391.9" width="12.2" height="24.65" shape-rendering="crispEdges"/><rect fill="#ffffff" x="0" y="416.3" width="12.2" height="24.65" shape-rendering="crispEdges"/><rect fill="#ffffff" x="12.2" y="416.3" width="1171.2" height="24.65" shape-rendering="crispEdges"/><rect fill="#dee0dd" x="1183.4" y="416.3" width="24.4" height="24.65" shape-rendering="crispEdges"/><rect fill="#ffffff" x="1207.8" y="416.3" width="12.2" height="24.65" shape-rendering="crispEdges"/><rect fill="#ffffff" x="0" y="440.7" width="12.2" height="24.65" shape-rendering="crispEdges"/><rect fill="#ffffff" x="12.2" y="440.7" width="1171.2" height="24.65" shape-rendering="crispEdges"/><rect fill="#dee0dd" x="1183.4" y="440.7" width="24.4" height="24.65" shape-rendering="crispEdges"/><rect fill="#ffffff" x="1207.8" y="440.7" width="12.2" height="24.65" shape-rendering="crispEdges"/><rect fill="#ffffff" x="0" y="465.1" width="12.2" height="24.65" shape-rendering="crispEdges"/><rect fill="#ffffff" x="12.2" y="465.1" width="1171.2" height="24.65" shape-rendering="crispEdges"/><rect fill="#dee0dd" x="1183.4" y="465.1" width="24.4" height="24.65" shape-rendering="crispEdges"/><rect fill="#ffffff" x="1207.8" y="465.1" width="12.2" height="24.65" shape-rendering="crispEdges"/><rect fill="#ffffff" x="0" y="489.5" width="12.2" height="24.65" shape-rendering="crispEdges"/><rect fill="#ffffff" x="12.2" y="489.5" width="1171.2" height="24.65" shape-rendering="crispEdges"/><rect fill="#dee0dd" x="1183.4" y="489.5" width="24.4" height="24.65" shape-rendering="crispEdges"/><rect fill="#ffffff" x="1207.8" y="489.5" width="12.2" height="24.65" shape-rendering="crispEdges"/><rect fill="#ffffff" x="0" y="513.9" width="12.2" height="24.65" shape-rendering="crispEdges"/><rect fill="#ffffff" x="12.2" y="513.9" width="1171.2" height="24.65" shape-rendering="crispEdges"/><rect fill="#dee0dd" x="1183.4" y="513.9" width="24.4" height="24.65" shape-rendering="crispEdges"/><rect fill="#ffffff" x="1207.8" y="513.9" width="12.2" height="24.65" shape-rendering="crispEdges"/><rect fill="#ffffff" x="0" y="538.3" width="12.2" height="24.65" shape-rendering="crispEdges"/><rect fill="#ffffff" x="12.2" y="538.3" width="1171.2" height="24.65" shape-rendering="crispEdges"/><rect fill="#dee0dd" x="1183.4" y="538.3" width="24.4" height="24.65" shape-rendering="crispEdges"/><rect fill="#ffffff" x="1207.8" y="538.3" width="12.2" height="24.65" shape-rendering="crispEdges"/><rect fill="#ffffff" x="0" y="562.7" width="12.2" height="24.65" shape-rendering="crispEdges"/><rect fill="#ffffff" x="12.2" y="562.7" width="1195.6" height="24.65" shape-rendering="crispEdges"/><rect fill="#ffffff" x="1207.8" y="562.7" width="12.2" height="24.65" shape-rendering="crispEdges"/><rect fill="#ffffff" x="0" y="587.1" width="12.2" height="24.65" shape-rendering="crispEdges"/><rect fill="#ffffff" x="12.2" y="587.1" width="927.2" height="24.65" shape-rendering="crispEdges"/><rect fill="#ffffff" x="939.4" y="587.1" width="12.2" height="24.65" shape-rendering="crispEdges"/><rect fill="#f4f6f3" x="951.6" y="587.1" width="12.2" height="24.65" shape-rendering="crispEdges"/><rect fill="#f4f6f3" x="963.8" y="587.1" width="244" height="24.65" shape-rendering="crispEdges"/><rect fill="#f4f6f3" x="1207.8" y="587.1" width="12.2" height="24.65" shape-rendering="crispEdges"/><rect fill="#ffffff" x="0" y="611.5" width="12.2" height="24.65" shape-rendering="crispEdges"/><rect fill="#ffffff" x="12.2" y="611.5" width="12.2" height="24.65" shape-rendering="crispEdges"/><rect fill="#545254" x="24.4" y="611.5" width="12.2" height="24.65" shape-rendering="crispEdges"/><rect fill="#ffffff" x="36.6" y="611.5" width="890.6" height="24.65" shape-rendering="crispEdges"/><rect fill="#ffffff" x="927.2" y="611.5" width="12.2" height="24.65" shape-rendering="crispEdges"/><rect fill="#ffffff" x="939.4" y="611.5" width="12.2" height="24.65" shape-rendering="crispEdges"/><rect fill="#f4f6f3" x="951.6" y="611.5" width="12.2" height="24.65" shape-rendering="crispEdges"/><rect fill="#f4f6f3" x="963.8" y="611.5" width="73.2" height="24.65" shape-rendering="crispEdges"/><rect fill="#f4f6f3" x="1037" y="611.5" width="73.2" height="24.65" shape-rendering="crispEdges"/><rect fill="#f4f6f3" x="1110.2" y="611.5" width="97.6" height="24.65" shape-rendering="crispEdges"/><rect fill="#f4f6f3" x="1207.8" y="611.5" width="12.2" height="24.65" shape-rendering="crispEdges"/><rect fill="#ffffff" x="0" y="635.9" width="12.2" height="24.65" shape-rendering="crispEdges"/><rect fill="#ffffff" x="12.2" y="635.9" width="12.2" height="24.65" shape-rendering="crispEdges"/><rect fill="#ffffff" x="24.4" y="635.9" width="902.8" height="24.65" shape-rendering="crispEdges"/><rect fill="#ffffff" x="927.2" y="635.9" width="12.2" height="24.65" shape-rendering="crispEdges"/><rect fill="#ffffff" x="939.4" y="635.9" width="12.2" height="24.65" shape-rendering="crispEdges"/><rect fill="#f4f6f3" x="951.6" y="635.9" width="12.2" height="24.65" shape-rendering="crispEdges"/><rect fill="#f4f6f3" x="963.8" y="635.9" width="73.2" height="24.65" shape-rendering="crispEdges"/><rect fill="#f4f6f3" x="1037" y="635.9" width="85.4" height="24.65" shape-rendering="crispEdges"/><rect fill="#f4f6f3" x="1122.4" y="635.9" width="85.4" height="24.65" shape-rendering="crispEdges"/><rect fill="#f4f6f3" x="1207.8" y="635.9" width="12.2" height="24.65" shape-rendering="crispEdges"/><rect fill="#ffffff" x="0" y="660.3" width="12.2" height="24.65" shape-rendering="crispEdges"/><rect fill="#ffffff" x="12.2" y="660.3" width="12.2" height="24.65" shape-rendering="crispEdges"/><rect fill="#ffffff" x="24.4" y="660.3" width="902.8" height="24.65" shape-rendering="crispEdges"/><rect fill="#ffffff" x="927.2" y="660.3" width="12.2" height="24.65" shape-rendering="crispEdges"/><rect fill="#ffffff" x="939.4" y="660.3" width="12.2" height="24.65" shape-rendering="crispEdges"/><rect fill="#f4f6f3" x="951.6" y="660.3" width="12.2" height="24.65" shape-rendering="crispEdges"/><rect fill="#f4f6f3" x="963.8" y="660.3" width="244" height="24.65" shape-rendering="crispEdges"/><rect fill="#f4f6f3" x="1207.8" y="660.3" width="12.2" height="24.65" shape-rendering="crispEdges"/><rect fill="#ffffff" x="0" y="684.7" width="12.2" height="24.65" shape-rendering="crispEdges"/><rect fill="#ffffff" x="12.2" y="684.7" width="927.2" height="24.65" shape-rendering="crispEdges"/><rect fill="#ffffff" x="939.4" y="684.7" width="12.2" height="24.65" shape-rendering="crispEdges"/><rect fill="#f4f6f3" x="951.6" y="684.7" width="12.2" height="24.65" shape-rendering="crispEdges"/><rect fill="#f4f6f3" x="963.8" y="684.7" width="244" height="24.65" shape-rendering="crispEdges"/><rect fill="#f4f6f3" x="1207.8" y="684.7" width="12.2" height="24.65" shape-rendering="crispEdges"/><rect fill="#ffffff" x="0" y="709.1" width="73.2" height="24.65" shape-rendering="crispEdges"/><rect fill="#ffffff" x="73.2" y="709.1" width="122" height="24.65" shape-rendering="crispEdges"/><rect fill="#ffffff" x="195.2" y="709.1" width="73.2" height="24.65" shape-rendering="crispEdges"/><rect fill="#ffffff" x="268.4" y="709.1" width="146.4" height="24.65" shape-rendering="crispEdges"/><rect fill="#ffffff" x="414.8" y="709.1" width="48.8" height="24.65" shape-rendering="crispEdges"/><rect fill="#ffffff" x="463.6" y="709.1" width="158.6" height="24.65" shape-rendering="crispEdges"/><rect fill="#ffffff" x="622.2" y="709.1" width="85.4" height="24.65" shape-rendering="crispEdges"/><rect fill="#ffffff" x="707.6" y="709.1" width="48.8" height="24.65" shape-rendering="crispEdges"/><rect fill="#ffffff" x="756.4" y="709.1" width="73.2" height="24.65" shape-rendering="crispEdges"/><rect fill="#ffffff" x="829.6" y="709.1" width="85.4" height="24.65" shape-rendering="crispEdges"/><rect fill="#ffffff" x="915" y="709.1" width="48.8" height="24.65" shape-rendering="crispEdges"/><rect fill="#ffffff" x="963.8" y="709.1" width="61" height="24.65" shape-rendering="crispEdges"/><rect fill="#ffffff" x="1024.8" y="709.1" width="48.8" height="24.65" shape-rendering="crispEdges"/><rect fill="#ffffff" x="1073.6" y="709.1" width="12.2" height="24.65" shape-rendering="crispEdges"/><rect fill="#ffffff" x="1085.8" y="709.1" width="24.4" height="24.65" shape-rendering="crispEdges"/><rect fill="#ffffff" x="1110.2" y="709.1" width="36.6" height="24.65" shape-rendering="crispEdges"/><rect fill="#ffffff" x="1146.8" y="709.1" width="61" height="24.65" shape-rendering="crispEdges"/><rect fill="#ffffff" x="1207.8" y="709.1" width="12.2" height="24.65" shape-rendering="crispEdges"/>
    <g class="terminal-3857241843-matrix">
    <text class="terminal-3857241843-r2" x="12.2" y="20" textLength="12.2" clip-path="url(#terminal-3857241843-line-0)">⭘</text><text class="terminal-3857241843-r2" x="170.8" y="20" textLength="97.6" clip-path="url(#terminal-3857241843-line-0)">sidekick</text><text class="terminal-3857241843-r3" x="268.4" y="20" textLength="36.6" clip-path="url(#terminal-3857241843-line-0)">&#160;—&#160;</text><text class="terminal-3857241843-r3" x="305" y="20" textLength="719.8" clip-path="url(#terminal-3857241843-line-0)">groq&#160;·&#160;openai/gpt-oss-20b&#160;·&#160;confirm&#160;·&#160;260923-131541&#160;·&#160;/help</text><text class="terminal-3857241843-r1" x="1220" y="20" textLength="12.2" clip-path="url(#terminal-3857241843-line-0)">
</text><text class="terminal-3857241843-r4" x="0" y="44.4" textLength="12.2" clip-path="url(#terminal-3857241843-line-1)">┌</text><text class="terminal-3857241843-r4" x="12.2" y="44.4" textLength="1195.6" clip-path="url(#terminal-3857241843-line-1)">──────────────────────────────────────────────────────────────────────────────────────────────────</text><text class="terminal-3857241843-r4" x="1207.8" y="44.4" textLength="12.2" clip-path="url(#terminal-3857241843-line-1)">┐</text><text class="terminal-3857241843-r1" x="1220" y="44.4" textLength="12.2" clip-path="url(#terminal-3857241843-line-1)">
</text><text class="terminal-3857241843-r4" x="0" y="68.8" textLength="12.2" clip-path="url(#terminal-3857241843-line-2)">│</text><text class="terminal-3857241843-r2" x="12.2" y="68.8" textLength="939.4" clip-path="url(#terminal-3857241843-line-2)">sidekick&#160;online.&#160;Enter&#160;sends&#160;·&#160;ctrl+j&#160;newline&#160;·&#160;↑&#160;history&#160;·&#160;ctrl+g&#160;to&#160;talk&#160;·&#160;</text><text class="terminal-3857241843-r4" x="1207.8" y="68.8" textLength="12.2" clip-path="url(#terminal-3857241843-line-2)">│</text><text class="terminal-3857241843-r1" x="1220" y="68.8" textLength="12.2" clip-path="url(#terminal-3857241843-line-2)">
</text><text class="terminal-3857241843-r4" x="0" y="93.2" textLength="12.2" clip-path="url(#terminal-3857241843-line-3)">│</text><text class="terminal-3857241843-r2" x="12.2" y="93.2" textLength="927.2" clip-path="url(#terminal-3857241843-line-3)">pgup/pgdn&#160;scroll&#160;·&#160;drag&#160;to&#160;select&#160;(auto-copies&#160;on&#160;release),&#160;`ctrl+y`&#160;copies&#160;</text><text class="terminal-3857241843-r4" x="1207.8" y="93.2" textLength="12.2" clip-path="url(#terminal-3857241843-line-3)">│</text><text class="terminal-3857241843-r1" x="1220" y="93.2" textLength="12.2" clip-path="url(#terminal-3857241843-line-3)">
</text><text class="terminal-3857241843-r4" x="0" y="117.6" textLength="12.2" clip-path="url(#terminal-3857241843-line-4)">│</text><text class="terminal-3857241843-r2" x="12.2" y="117.6" textLength="353.8" clip-path="url(#terminal-3857241843-line-4)">selection&#160;(else&#160;last&#160;answer).</text><text class="terminal-3857241843-r4" x="1207.8" y="117.6" textLength="12.2" clip-path="url(#terminal-3857241843-line-4)">│</text><text class="terminal-3857241843-r1" x="1220" y="117.6" textLength="12.2" clip-path="url(#terminal-3857241843-line-4)">
</text><text class="terminal-3857241843-r4" x="0" y="142" textLength="12.2" clip-path="url(#terminal-3857241843-line-5)">│</text><text class="terminal-3857241843-r2" x="12.2" y="142" textLength="646.6" clip-path="url(#terminal-3857241843-line-5)">build&#160;de8608e&#160;(`sk&#160;version`&#160;to&#160;compare&#160;after&#160;updates)</text><text class="terminal-3857241843-r4" x="1207.8" y="142" textLength="12.2" clip-path="url(#terminal-3857241843-line-5)">│</text><text class="terminal-3857241843-r1" x="1220" y="142" textLength="12.2" clip-path="url(#terminal-3857241843-line-5)">
</text><text class="terminal-3857241843-r4" x="0" y="166.4" textLength="12.2" clip-path="url(#terminal-3857241843-line-6)">│</text><text class="terminal-3857241843-r2" x="12.2" y="166.4" textLength="915" clip-path="url(#terminal-3857241843-line-6)">sidekick&#160;online.&#160;Enter&#160;sends&#160;·&#160;ctrl+j&#160;newline&#160;·&#160;↑&#160;history&#160;·&#160;ctrl+g&#160;to&#160;talk.</text><text class="terminal-3857241843-r4" x="1207.8" y="166.4" textLength="12.2" clip-path="url(#terminal-3857241843-line-6)">│</text><text class="terminal-3857241843-r1" x="1220" y="166.4" textLength="12.2" clip-path="url(#terminal-3857241843-line-6)">
</text><text class="terminal-3857241843-r4" x="0" y="190.8" textLength="12.2" clip-path="url(#terminal-3857241843-line-7)">│</text><text class="terminal-3857241843-r3" x="12.2" y="190.8" textLength="97.6" clip-path="url(#terminal-3857241843-line-7)">[13:15]&#160;</text><text class="terminal-3857241843-r5" x="109.8" y="190.8" textLength="61" clip-path="url(#terminal-3857241843-line-7)">you&gt;&#160;</text><text class="terminal-3857241843-r2" x="170.8" y="190.8" textLength="353.8" clip-path="url(#terminal-3857241843-line-7)">what&#160;files&#160;are&#160;in&#160;~/sidekick?</text><text class="terminal-3857241843-r4" x="1207.8" y="190.8" textLength="12.2" clip-path="url(#terminal-3857241843-line-7)">│</text><text class="terminal-3857241843-r1" x="1220" y="190.8" textLength="12.2" clip-path="url(#terminal-3857241843-line-7)">
</text><text class="terminal-3857241843-r4" x="0" y="215.2" textLength="12.2" clip-path="url(#terminal-3857241843-line-8)">│</text><text class="terminal-3857241843-r3" x="12.2" y="215.2" textLength="97.6" clip-path="url(#terminal-3857241843-line-8)">[13:15]&#160;</text><text class="terminal-3857241843-r6" x="109.8" y="215.2" textLength="73.2" clip-path="url(#terminal-3857241843-line-8)">tool&gt;&#160;</text><text class="terminal-3857241843-r2" x="183" y="215.2" textLength="475.8" clip-path="url(#terminal-3857241843-line-8)">○&#160;tool:&#160;list_dir&#160;{&#x27;path&#x27;:&#160;&#x27;~/sidekick&#x27;}</text><text class="terminal-3857241843-r4" x="1207.8" y="215.2" textLength="12.2" clip-path="url(#terminal-3857241843-line-8)">│</text><text class="terminal-3857241843-r1" x="1220" y="215.2" textLength="12.2" clip-path="url(#terminal-3857241843-line-8)">
</text><text class="terminal-3857241843-r4" x="0" y="239.6" textLength="12.2" clip-path="url(#terminal-3857241843-line-9)">│</text><text class="terminal-3857241843-r3" x="12.2" y="239.6" textLength="97.6" clip-path="url(#terminal-3857241843-line-9)">[13:15]&#160;</text><text class="terminal-3857241843-r7" x="109.8" y="239.6" textLength="122" clip-path="url(#terminal-3857241843-line-9)">sidekick&gt;&#160;</text><text class="terminal-3857241843-r4" x="1207.8" y="239.6" textLength="12.2" clip-path="url(#terminal-3857241843-line-9)">│</text><text class="terminal-3857241843-r1" x="1220" y="239.6" textLength="12.2" clip-path="url(#terminal-3857241843-line-9)">
</text><text class="terminal-3857241843-r4" x="0" y="264" textLength="12.2" clip-path="url(#terminal-3857241843-line-10)">│</text><text class="terminal-3857241843-r2" x="12.2" y="264" textLength="36.6" clip-path="url(#terminal-3857241843-line-10)">**~</text><text class="terminal-3857241843-r8" x="48.8" y="264" textLength="12.2" clip-path="url(#terminal-3857241843-line-10)">/</text><text class="terminal-3857241843-r9" x="61" y="264" textLength="97.6" clip-path="url(#terminal-3857241843-line-10)">sidekick</text><text class="terminal-3857241843-r2" x="158.6" y="264" textLength="658.8" clip-path="url(#terminal-3857241843-line-10)">**:&#160;`pyproject.toml`,&#160;`src/sk/`,&#160;`tests/`,&#160;`README.md`</text><text class="terminal-3857241843-r4" x="1207.8" y="264" textLength="12.2" clip-path="url(#terminal-3857241843-line-10)">│</text><text class="terminal-3857241843-r1" x="1220" y="264" textLength="12.2" clip-path="url(#terminal-3857241843-line-10)">
</text><text class="terminal-3857241843-r4" x="0" y="288.4" textLength="12.2" clip-path="url(#terminal-3857241843-line-11)">│</text><text class="terminal-3857241843-r3" x="12.2" y="288.4" textLength="97.6" clip-path="url(#terminal-3857241843-line-11)">[13:15]&#160;</text><text class="terminal-3857241843-r5" x="109.8" y="288.4" textLength="61" clip-path="url(#terminal-3857241843-line-11)">you&gt;&#160;</text><text class="terminal-3857241843-r2" x="170.8" y="288.4" textLength="317.2" clip-path="url(#terminal-3857241843-line-11)">summarize&#160;disk&#160;usage&#160;in&#160;~/</text><text class="terminal-3857241843-r4" x="1207.8" y="288.4" textLength="12.2" clip-path="url(#terminal-3857241843-line-11)">│</text><text class="terminal-3857241843-r1" x="1220" y="288.4" textLength="12.2" clip-path="url(#terminal-3857241843-line-11)">
</text><text class="terminal-3857241843-r4" x="0" y="312.8" textLength="12.2" clip-path="url(#terminal-3857241843-line-12)">│</text><text class="terminal-3857241843-r3" x="12.2" y="312.8" textLength="97.6" clip-path="url(#terminal-3857241843-line-12)">[13:15]&#160;</text><text class="terminal-3857241843-r6" x="109.8" y="312.8" textLength="73.2" clip-path="url(#terminal-3857241843-line-12)">tool&gt;&#160;</text><text class="terminal-3857241843-r2" x="183" y="312.8" textLength="353.8" clip-path="url(#terminal-3857241843-line-12)">○&#160;tool:&#160;exec&#160;{&#x27;cmd&#x27;:&#160;&#x27;df&#160;-h&#x27;}</text><text class="terminal-3857241843-r4" x="1207.8" y="312.8" textLength="12.2" clip-path="url(#terminal-3857241843-line-12)">│</text><text class="terminal-3857241843-r1" x="1220" y="312.8" textLength="12.2" clip-path="url(#terminal-3857241843-line-12)">
</text><text class="terminal-3857241843-r4" x="0" y="337.2" textLength="12.2" clip-path="url(#terminal-3857241843-line-13)">│</text><text class="terminal-3857241843-r3" x="12.2" y="337.2" textLength="97.6" clip-path="url(#terminal-3857241843-line-13)">[13:15]&#160;</text><text class="terminal-3857241843-r7" x="109.8" y="337.2" textLength="122" clip-path="url(#terminal-3857241843-line-13)">sidekick&gt;&#160;</text><text class="terminal-3857241843-r4" x="1207.8" y="337.2" textLength="12.2" clip-path="url(#terminal-3857241843-line-13)">│</text><text class="terminal-3857241843-r1" x="1220" y="337.2" textLength="12.2" clip-path="url(#terminal-3857241843-line-13)">
</text><text class="terminal-3857241843-r4" x="0" y="361.6" textLength="12.2" clip-path="url(#terminal-3857241843-line-14)">│</text><text class="terminal-3857241843-r8" x="12.2" y="361.6" textLength="61" clip-path="url(#terminal-3857241843-line-14)">/dev/</text><text class="terminal-3857241843-r9" x="73.2" y="361.6" textLength="109.8" clip-path="url(#terminal-3857241843-line-14)">nvme0n1p8</text><text class="terminal-3857241843-r2" x="183" y="361.6" textLength="170.8" clip-path="url(#terminal-3857241843-line-14)">&#160;&#160;133G&#160;&#160;117G&#160;&#160;</text><text class="terminal-3857241843-r10" x="353.8" y="361.6" textLength="24.4" clip-path="url(#terminal-3857241843-line-14)">8.</text><text class="terminal-3857241843-r2" x="378.2" y="361.6" textLength="48.8" clip-path="url(#terminal-3857241843-line-14)">5G&#160;&#160;</text><text class="terminal-3857241843-r10" x="427" y="361.6" textLength="24.4" clip-path="url(#terminal-3857241843-line-14)">94</text><text class="terminal-3857241843-r2" x="451.4" y="361.6" textLength="24.4" clip-path="url(#terminal-3857241843-line-14)">%&#160;</text><text class="terminal-3857241843-r8" x="475.8" y="361.6" textLength="12.2" clip-path="url(#terminal-3857241843-line-14)">/</text><text class="terminal-3857241843-r4" x="1207.8" y="361.6" textLength="12.2" clip-path="url(#terminal-3857241843-line-14)">│</text><text class="terminal-3857241843-r1" x="1220" y="361.6" textLength="12.2" clip-path="url(#terminal-3857241843-line-14)">
</text><text class="terminal-3857241843-r4" x="0" y="386" textLength="12.2" clip-path="url(#terminal-3857241843-line-15)">│</text><text class="terminal-3857241843-r4" x="1207.8" y="386" textLength="12.2" clip-path="url(#terminal-3857241843-line-15)">│</text><text class="terminal-3857241843-r1" x="1220" y="386" textLength="12.2" clip-path="url(#terminal-3857241843-line-15)">
</text><text class="terminal-3857241843-r4" x="0" y="410.4" textLength="12.2" clip-path="url(#terminal-3857241843-line-16)">│</text><text class="terminal-3857241843-r4" x="1207.8" y="410.4" textLength="12.2" clip-path="url(#terminal-3857241843-line-16)">│</text><text class="terminal-3857241843-r1" x="1220" y="410.4" textLength="12.2" clip-path="url(#terminal-3857241843-line-16)">
</text><text class="terminal-3857241843-r4" x="0" y="434.8" textLength="12.2" clip-path="url(#terminal-3857241843-line-17)">│</text><text class="terminal-3857241843-r4" x="1207.8" y="434.8" textLength="12.2" clip-path="url(#terminal-3857241843-line-17)">│</text><text class="terminal-3857241843-r1" x="1220" y="434.8" textLength="12.2" clip-path="url(#terminal-3857241843-line-17)">
</text><text class="terminal-3857241843-r4" x="0" y="459.2" textLength="12.2" clip-path="url(#terminal-3857241843-line-18)">│</text><text class="terminal-3857241843-r4" x="1207.8" y="459.2" textLength="12.2" clip-path="url(#terminal-3857241843-line-18)">│</text><text class="terminal-3857241843-r1" x="1220" y="459.2" textLength="12.2" clip-path="url(#terminal-3857241843-line-18)">
</text><text class="terminal-3857241843-r4" x="0" y="483.6" textLength="12.2" clip-path="url(#terminal-3857241843-line-19)">│</text><text class="terminal-3857241843-r4" x="1207.8" y="483.6" textLength="12.2" clip-path="url(#terminal-3857241843-line-19)">│</text><text class="terminal-3857241843-r1" x="1220" y="483.6" textLength="12.2" clip-path="url(#terminal-3857241843-line-19)">
</text><text class="terminal-3857241843-r4" x="0" y="508" textLength="12.2" clip-path="url(#terminal-3857241843-line-20)">│</text><text class="terminal-3857241843-r4" x="1207.8" y="508" textLength="12.2" clip-path="url(#terminal-3857241843-line-20)">│</text><text class="terminal-3857241843-r1" x="1220" y="508" textLength="12.2" clip-path="url(#terminal-3857241843-line-20)">
</text><text class="terminal-3857241843-r4" x="0" y="532.4" textLength="12.2" clip-path="url(#terminal-3857241843-line-21)">│</text><text class="terminal-3857241843-r4" x="1207.8" y="532.4" textLength="12.2" clip-path="url(#terminal-3857241843-line-21)">│</text><text class="terminal-3857241843-r1" x="1220" y="532.4" textLength="12.2" clip-path="url(#terminal-3857241843-line-21)">
</text><text class="terminal-3857241843-r4" x="0" y="556.8" textLength="12.2" clip-path="url(#terminal-3857241843-line-22)">│</text><text class="terminal-3857241843-r4" x="1207.8" y="556.8" textLength="12.2" clip-path="url(#terminal-3857241843-line-22)">│</text><text class="terminal-3857241843-r1" x="1220" y="556.8" textLength="12.2" clip-path="url(#terminal-3857241843-line-22)">
</text><text class="terminal-3857241843-r4" x="0" y="581.2" textLength="12.2" clip-path="url(#terminal-3857241843-line-23)">└</text><text class="terminal-3857241843-r4" x="12.2" y="581.2" textLength="1195.6" clip-path="url(#terminal-3857241843-line-23)">──────────────────────────────────────────────────────────────────────────────────────────────────</text><text class="terminal-3857241843-r4" x="1207.8" y="581.2" textLength="12.2" clip-path="url(#terminal-3857241843-line-23)">┘</text><text class="terminal-3857241843-r1" x="1220" y="581.2" textLength="12.2" clip-path="url(#terminal-3857241843-line-23)">
</text><text class="terminal-3857241843-r11" x="0" y="605.6" textLength="12.2" clip-path="url(#terminal-3857241843-line-24)">┌</text><text class="terminal-3857241843-r11" x="12.2" y="605.6" textLength="927.2" clip-path="url(#terminal-3857241843-line-24)">────────────────────────────────────────────────────────────────────────────</text><text class="terminal-3857241843-r11" x="939.4" y="605.6" textLength="12.2" clip-path="url(#terminal-3857241843-line-24)">┐</text><text class="terminal-3857241843-r4" x="951.6" y="605.6" textLength="12.2" clip-path="url(#terminal-3857241843-line-24)">┌</text><text class="terminal-3857241843-r4" x="963.8" y="605.6" textLength="244" clip-path="url(#terminal-3857241843-line-24)">────────────────────</text><text class="terminal-3857241843-r4" x="1207.8" y="605.6" textLength="12.2" clip-path="url(#terminal-3857241843-line-24)">┐</text><text class="terminal-3857241843-r1" x="1220" y="605.6" textLength="12.2" clip-path="url(#terminal-3857241843-line-24)">
</text><text class="terminal-3857241843-r11" x="0" y="630" textLength="12.2" clip-path="url(#terminal-3857241843-line-25)">│</text><text class="terminal-3857241843-r11" x="939.4" y="630" textLength="12.2" clip-path="url(#terminal-3857241843-line-25)">│</text><text class="terminal-3857241843-r4" x="951.6" y="630" textLength="12.2" clip-path="url(#terminal-3857241843-line-25)">│</text><text class="terminal-3857241843-r13" x="1037" y="630" textLength="73.2" clip-path="url(#terminal-3857241843-line-25)">ctrl+g</text><text class="terminal-3857241843-r4" x="1207.8" y="630" textLength="12.2" clip-path="url(#terminal-3857241843-line-25)">│</text><text class="terminal-3857241843-r1" x="1220" y="630" textLength="12.2" clip-path="url(#terminal-3857241843-line-25)">
</text><text class="terminal-3857241843-r11" x="0" y="654.4" textLength="12.2" clip-path="url(#terminal-3857241843-line-26)">│</text><text class="terminal-3857241843-r11" x="939.4" y="654.4" textLength="12.2" clip-path="url(#terminal-3857241843-line-26)">│</text><text class="terminal-3857241843-r4" x="951.6" y="654.4" textLength="12.2" clip-path="url(#terminal-3857241843-line-26)">│</text><text class="terminal-3857241843-r13" x="1037" y="654.4" textLength="85.4" clip-path="url(#terminal-3857241843-line-26)">to&#160;talk</text><text class="terminal-3857241843-r4" x="1207.8" y="654.4" textLength="12.2" clip-path="url(#terminal-3857241843-line-26)">│</text><text class="terminal-3857241843-r1" x="1220" y="654.4" textLength="12.2" clip-path="url(#terminal-3857241843-line-26)">
</text><text class="terminal-3857241843-r11" x="0" y="678.8" textLength="12.2" clip-path="url(#terminal-3857241843-line-27)">│</text><text class="terminal-3857241843-r11" x="939.4" y="678.8" textLength="12.2" clip-path="url(#terminal-3857241843-line-27)">│</text><text class="terminal-3857241843-r4" x="951.6" y="678.8" textLength="12.2" clip-path="url(#terminal-3857241843-line-27)">│</text><text class="terminal-3857241843-r4" x="1207.8" y="678.8" textLength="12.2" clip-path="url(#terminal-3857241843-line-27)">│</text><text class="terminal-3857241843-r1" x="1220" y="678.8" textLength="12.2" clip-path="url(#terminal-3857241843-line-27)">
</text><text class="terminal-3857241843-r11" x="0" y="703.2" textLength="12.2" clip-path="url(#terminal-3857241843-line-28)">└</text><text class="terminal-3857241843-r11" x="12.2" y="703.2" textLength="927.2" clip-path="url(#terminal-3857241843-line-28)">────────────────────────────────────────────────────────────────────────────</text><text class="terminal-3857241843-r11" x="939.4" y="703.2" textLength="12.2" clip-path="url(#terminal-3857241843-line-28)">┘</text><text class="terminal-3857241843-r4" x="951.6" y="703.2" textLength="12.2" clip-path="url(#terminal-3857241843-line-28)">└</text><text class="terminal-3857241843-r4" x="963.8" y="703.2" textLength="244" clip-path="url(#terminal-3857241843-line-28)">────────────────────</text><text class="terminal-3857241843-r4" x="1207.8" y="703.2" textLength="12.2" clip-path="url(#terminal-3857241843-line-28)">┘</text><text class="terminal-3857241843-r1" x="1220" y="703.2" textLength="12.2" clip-path="url(#terminal-3857241843-line-28)">
</text><text class="terminal-3857241843-r14" x="0" y="727.6" textLength="73.2" clip-path="url(#terminal-3857241843-line-29)">&#160;pgup&#160;</text><text class="terminal-3857241843-r2" x="73.2" y="727.6" textLength="122" clip-path="url(#terminal-3857241843-line-29)">scroll&#160;up&#160;</text><text class="terminal-3857241843-r14" x="195.2" y="727.6" textLength="73.2" clip-path="url(#terminal-3857241843-line-29)">&#160;pgdn&#160;</text><text class="terminal-3857241843-r2" x="268.4" y="727.6" textLength="146.4" clip-path="url(#terminal-3857241843-line-29)">scroll&#160;down&#160;</text><text class="terminal-3857241843-r14" x="414.8" y="727.6" textLength="48.8" clip-path="url(#terminal-3857241843-line-29)">&#160;^g&#160;</text><text class="terminal-3857241843-r2" x="463.6" y="727.6" textLength="158.6" clip-path="url(#terminal-3857241843-line-29)">push&#160;to&#160;talk&#160;</text><text class="terminal-3857241843-r14" x="622.2" y="727.6" textLength="85.4" clip-path="url(#terminal-3857241843-line-29)">&#160;^home&#160;</text><text class="terminal-3857241843-r2" x="707.6" y="727.6" textLength="48.8" clip-path="url(#terminal-3857241843-line-29)">top&#160;</text><text class="terminal-3857241843-r14" x="756.4" y="727.6" textLength="73.2" clip-path="url(#terminal-3857241843-line-29)">&#160;^end&#160;</text><text class="terminal-3857241843-r2" x="829.6" y="727.6" textLength="85.4" clip-path="url(#terminal-3857241843-line-29)">bottom&#160;</text><text class="terminal-3857241843-r14" x="915" y="727.6" textLength="48.8" clip-path="url(#terminal-3857241843-line-29)">&#160;f1&#160;</text><text class="terminal-3857241843-r2" x="963.8" y="727.6" textLength="61" clip-path="url(#terminal-3857241843-line-29)">help&#160;</text><text class="terminal-3857241843-r14" x="1024.8" y="727.6" textLength="48.8" clip-path="url(#terminal-3857241843-line-29)">&#160;f2&#160;</text><text class="terminal-3857241843-r15" x="1073.6" y="727.6" textLength="12.2" clip-path="url(#terminal-3857241843-line-29)">▏</text><text class="terminal-3857241843-r14" x="1085.8" y="727.6" textLength="24.4" clip-path="url(#terminal-3857241843-line-29)">^p</text><text class="terminal-3857241843-r2" x="1110.2" y="727.6" textLength="36.6" clip-path="url(#terminal-3857241843-line-29)">&#160;pa</text><text class="terminal-3857241843-r2" x="1146.8" y="727.6" textLength="61" clip-path="url(#terminal-3857241843-line-29)">lette</text>
    </g>
    </g>
</svg>
